<mxfile host="app.diagrams.net" modified="2024-04-29T10:30:07.088Z" agent="Mozilla/5.0 (Windows NT 10.0; Win64; x64) AppleWebKit/537.36 (KHTML, like Gecko) Chrome/124.0.0.0 Safari/537.36" etag="ExLE5CTLRwwsNucx1NCr" version="24.2.2" type="github">
  <diagram name="第 1 页" id="P-7yA5mQfRj8qy2jaDvM">
    <mxGraphModel dx="1430" dy="781" grid="1" gridSize="10" guides="1" tooltips="1" connect="1" arrows="1" fold="1" page="1" pageScale="1" pageWidth="800" pageHeight="350" math="1" shadow="0">
      <root>
        <mxCell id="0" />
        <mxCell id="1" parent="0" />
        <mxCell id="8XVUxLVr1DIilNDREIWd-90" value="" style="rounded=1;whiteSpace=wrap;html=1;fillColor=#dae8fc;strokeColor=#6c8ebf;" parent="1" vertex="1">
          <mxGeometry x="80" y="26" width="640" height="207" as="geometry" />
        </mxCell>
        <mxCell id="8XVUxLVr1DIilNDREIWd-4" value="" style="shape=waypoint;sketch=0;fillStyle=solid;size=6;pointerEvents=1;points=[];fillColor=none;resizable=0;rotatable=0;perimeter=centerPerimeter;snapToPoint=1;" parent="1" vertex="1">
          <mxGeometry x="200" y="256" width="20" height="20" as="geometry" />
        </mxCell>
        <mxCell id="8XVUxLVr1DIilNDREIWd-5" value="" style="shape=waypoint;sketch=0;fillStyle=solid;size=6;pointerEvents=1;points=[];fillColor=none;resizable=0;rotatable=0;perimeter=centerPerimeter;snapToPoint=1;" parent="1" vertex="1">
          <mxGeometry x="280" y="256" width="20" height="20" as="geometry" />
        </mxCell>
        <mxCell id="8XVUxLVr1DIilNDREIWd-6" value="" style="shape=waypoint;sketch=0;fillStyle=solid;size=6;pointerEvents=1;points=[];fillColor=none;resizable=0;rotatable=0;perimeter=centerPerimeter;snapToPoint=1;" parent="1" vertex="1">
          <mxGeometry x="360" y="256" width="20" height="20" as="geometry" />
        </mxCell>
        <mxCell id="8XVUxLVr1DIilNDREIWd-7" value="" style="shape=waypoint;sketch=0;fillStyle=solid;size=6;pointerEvents=1;points=[];fillColor=none;resizable=0;rotatable=0;perimeter=centerPerimeter;snapToPoint=1;" parent="1" vertex="1">
          <mxGeometry x="440" y="256" width="20" height="20" as="geometry" />
        </mxCell>
        <mxCell id="8XVUxLVr1DIilNDREIWd-8" value="" style="shape=waypoint;sketch=0;fillStyle=solid;size=6;pointerEvents=1;points=[];fillColor=none;resizable=0;rotatable=0;perimeter=centerPerimeter;snapToPoint=1;" parent="1" vertex="1">
          <mxGeometry x="520" y="256" width="20" height="20" as="geometry" />
        </mxCell>
        <mxCell id="8XVUxLVr1DIilNDREIWd-9" value="" style="shape=waypoint;sketch=0;fillStyle=solid;size=6;pointerEvents=1;points=[];fillColor=none;resizable=0;rotatable=0;perimeter=centerPerimeter;snapToPoint=1;" parent="1" vertex="1">
          <mxGeometry x="600" y="256" width="20" height="20" as="geometry" />
        </mxCell>
        <mxCell id="8XVUxLVr1DIilNDREIWd-10" value="" style="line;strokeWidth=2;direction=south;html=1;" parent="1" vertex="1">
          <mxGeometry x="245" y="246" width="10" height="40" as="geometry" />
        </mxCell>
        <mxCell id="8XVUxLVr1DIilNDREIWd-11" value="" style="line;strokeWidth=2;direction=south;html=1;" parent="1" vertex="1">
          <mxGeometry x="325" y="246" width="10" height="40" as="geometry" />
        </mxCell>
        <mxCell id="8XVUxLVr1DIilNDREIWd-12" value="" style="line;strokeWidth=5;direction=south;html=1;fillColor=#dae8fc;strokeColor=#6c8ebf;" parent="1" vertex="1">
          <mxGeometry x="405" y="246" width="10" height="40" as="geometry" />
        </mxCell>
        <mxCell id="8XVUxLVr1DIilNDREIWd-13" value="" style="line;strokeWidth=2;direction=south;html=1;" parent="1" vertex="1">
          <mxGeometry x="485" y="246" width="10" height="40" as="geometry" />
        </mxCell>
        <mxCell id="8XVUxLVr1DIilNDREIWd-14" value="" style="line;strokeWidth=2;direction=south;html=1;" parent="1" vertex="1">
          <mxGeometry x="565" y="246" width="10" height="40" as="geometry" />
        </mxCell>
        <mxCell id="8XVUxLVr1DIilNDREIWd-16" value="$$i-2$$" style="text;html=1;align=center;verticalAlign=middle;resizable=0;points=[];autosize=1;strokeColor=none;fillColor=none;" parent="1" vertex="1">
          <mxGeometry x="260" y="296" width="60" height="30" as="geometry" />
        </mxCell>
        <mxCell id="8XVUxLVr1DIilNDREIWd-17" value="$$i-1$$" style="text;html=1;align=center;verticalAlign=middle;resizable=0;points=[];autosize=1;strokeColor=none;fillColor=none;" parent="1" vertex="1">
          <mxGeometry x="340" y="296" width="60" height="30" as="geometry" />
        </mxCell>
        <mxCell id="8XVUxLVr1DIilNDREIWd-18" value="$$i$$" style="text;html=1;align=center;verticalAlign=middle;resizable=0;points=[];autosize=1;strokeColor=none;fillColor=none;" parent="1" vertex="1">
          <mxGeometry x="425" y="296" width="50" height="30" as="geometry" />
        </mxCell>
        <mxCell id="8XVUxLVr1DIilNDREIWd-19" value="$$i+1$$" style="text;html=1;align=center;verticalAlign=middle;resizable=0;points=[];autosize=1;strokeColor=none;fillColor=none;" parent="1" vertex="1">
          <mxGeometry x="495" y="296" width="70" height="30" as="geometry" />
        </mxCell>
        <mxCell id="8XVUxLVr1DIilNDREIWd-20" value="$$i+2$$" style="text;html=1;align=center;verticalAlign=middle;resizable=0;points=[];autosize=1;strokeColor=none;fillColor=none;" parent="1" vertex="1">
          <mxGeometry x="575" y="296" width="70" height="30" as="geometry" />
        </mxCell>
        <mxCell id="8XVUxLVr1DIilNDREIWd-21" value="$$i-1/2$$" style="text;html=1;align=center;verticalAlign=middle;resizable=0;points=[];autosize=1;strokeColor=none;fillColor=none;fontColor=#0066CC;" parent="1" vertex="1">
          <mxGeometry x="381" y="278" width="70" height="30" as="geometry" />
        </mxCell>
        <mxCell id="8XVUxLVr1DIilNDREIWd-22" value="" style="shape=waypoint;sketch=0;fillStyle=solid;size=6;pointerEvents=1;points=[];fillColor=none;resizable=0;rotatable=0;perimeter=centerPerimeter;snapToPoint=1;" parent="1" vertex="1">
          <mxGeometry x="360" y="176" width="20" height="20" as="geometry" />
        </mxCell>
        <mxCell id="8XVUxLVr1DIilNDREIWd-23" value="" style="shape=waypoint;sketch=0;fillStyle=solid;size=6;pointerEvents=1;points=[];fillColor=none;resizable=0;rotatable=0;perimeter=centerPerimeter;snapToPoint=1;" parent="1" vertex="1">
          <mxGeometry x="440" y="176" width="20" height="20" as="geometry" />
        </mxCell>
        <mxCell id="8XVUxLVr1DIilNDREIWd-24" value="" style="shape=waypoint;sketch=0;fillStyle=solid;size=6;pointerEvents=1;points=[];fillColor=none;resizable=0;rotatable=0;perimeter=centerPerimeter;snapToPoint=1;" parent="1" vertex="1">
          <mxGeometry x="520" y="176" width="20" height="20" as="geometry" />
        </mxCell>
        <mxCell id="8XVUxLVr1DIilNDREIWd-25" value="" style="endArrow=none;dashed=1;html=1;rounded=0;exitX=0.05;exitY=0.5;exitDx=0;exitDy=0;exitPerimeter=0;" parent="1" source="8XVUxLVr1DIilNDREIWd-22" target="8XVUxLVr1DIilNDREIWd-24" edge="1">
          <mxGeometry width="50" height="50" relative="1" as="geometry">
            <mxPoint x="680" y="96" as="sourcePoint" />
            <mxPoint x="730" y="46" as="targetPoint" />
            <Array as="points">
              <mxPoint x="490" y="186" />
            </Array>
          </mxGeometry>
        </mxCell>
        <mxCell id="8XVUxLVr1DIilNDREIWd-26" value="" style="shape=waypoint;sketch=0;fillStyle=solid;size=6;pointerEvents=1;points=[];fillColor=none;resizable=0;rotatable=0;perimeter=centerPerimeter;snapToPoint=1;" parent="1" vertex="1">
          <mxGeometry x="200" y="146" width="20" height="20" as="geometry" />
        </mxCell>
        <mxCell id="8XVUxLVr1DIilNDREIWd-27" value="" style="shape=waypoint;sketch=0;fillStyle=solid;size=6;pointerEvents=1;points=[];fillColor=none;resizable=0;rotatable=0;perimeter=centerPerimeter;snapToPoint=1;" parent="1" vertex="1">
          <mxGeometry x="280" y="146" width="20" height="20" as="geometry" />
        </mxCell>
        <mxCell id="8XVUxLVr1DIilNDREIWd-28" value="" style="shape=waypoint;sketch=0;fillStyle=solid;size=6;pointerEvents=1;points=[];fillColor=none;resizable=0;rotatable=0;perimeter=centerPerimeter;snapToPoint=1;" parent="1" vertex="1">
          <mxGeometry x="360" y="146" width="20" height="20" as="geometry" />
        </mxCell>
        <mxCell id="8XVUxLVr1DIilNDREIWd-29" value="" style="endArrow=none;dashed=1;html=1;rounded=0;exitX=0.05;exitY=0.5;exitDx=0;exitDy=0;exitPerimeter=0;" parent="1" source="8XVUxLVr1DIilNDREIWd-26" target="8XVUxLVr1DIilNDREIWd-28" edge="1">
          <mxGeometry width="50" height="50" relative="1" as="geometry">
            <mxPoint x="520" y="66" as="sourcePoint" />
            <mxPoint x="570" y="16" as="targetPoint" />
          </mxGeometry>
        </mxCell>
        <mxCell id="8XVUxLVr1DIilNDREIWd-30" value="" style="endArrow=none;dashed=1;html=1;rounded=0;exitDx=0;exitDy=0;exitPerimeter=0;" parent="1" source="8XVUxLVr1DIilNDREIWd-52" edge="1">
          <mxGeometry width="50" height="50" relative="1" as="geometry">
            <mxPoint x="290" y="216" as="sourcePoint" />
            <mxPoint x="450" y="216" as="targetPoint" />
            <Array as="points">
              <mxPoint x="410" y="216" />
            </Array>
          </mxGeometry>
        </mxCell>
        <mxCell id="8XVUxLVr1DIilNDREIWd-31" value="$$S_0$$" style="text;html=1;align=center;verticalAlign=middle;resizable=0;points=[];autosize=1;strokeColor=none;fillColor=none;" parent="1" vertex="1">
          <mxGeometry x="230" y="202" width="70" height="30" as="geometry" />
        </mxCell>
        <mxCell id="8XVUxLVr1DIilNDREIWd-32" value="$$S_1$$" style="text;html=1;align=center;verticalAlign=middle;resizable=0;points=[];autosize=1;strokeColor=none;fillColor=none;" parent="1" vertex="1">
          <mxGeometry x="310" y="171" width="70" height="30" as="geometry" />
        </mxCell>
        <mxCell id="8XVUxLVr1DIilNDREIWd-33" value="$$S_2$$" style="text;html=1;align=center;verticalAlign=middle;resizable=0;points=[];autosize=1;strokeColor=none;fillColor=none;" parent="1" vertex="1">
          <mxGeometry x="150" y="141" width="70" height="30" as="geometry" />
        </mxCell>
        <mxCell id="8XVUxLVr1DIilNDREIWd-49" value="" style="endArrow=none;dashed=1;html=1;rounded=0;exitDx=0;exitDy=0;exitPerimeter=0;" parent="1" source="8XVUxLVr1DIilNDREIWd-54" target="8XVUxLVr1DIilNDREIWd-50" edge="1">
          <mxGeometry width="50" height="50" relative="1" as="geometry">
            <mxPoint x="290" y="216" as="sourcePoint" />
            <mxPoint x="450" y="216" as="targetPoint" />
            <Array as="points" />
          </mxGeometry>
        </mxCell>
        <mxCell id="8XVUxLVr1DIilNDREIWd-50" value="" style="shape=waypoint;sketch=0;fillStyle=solid;size=6;pointerEvents=1;points=[];fillColor=none;resizable=0;rotatable=0;perimeter=centerPerimeter;snapToPoint=1;" parent="1" vertex="1">
          <mxGeometry x="360" y="206" width="20" height="20" as="geometry" />
        </mxCell>
        <mxCell id="8XVUxLVr1DIilNDREIWd-51" value="" style="endArrow=none;dashed=1;html=1;rounded=0;exitDx=0;exitDy=0;exitPerimeter=0;" parent="1" source="8XVUxLVr1DIilNDREIWd-50" target="8XVUxLVr1DIilNDREIWd-52" edge="1">
          <mxGeometry width="50" height="50" relative="1" as="geometry">
            <mxPoint x="370" y="216" as="sourcePoint" />
            <mxPoint x="450" y="216" as="targetPoint" />
            <Array as="points" />
          </mxGeometry>
        </mxCell>
        <mxCell id="8XVUxLVr1DIilNDREIWd-52" value="" style="shape=waypoint;sketch=0;fillStyle=solid;size=6;pointerEvents=1;points=[];fillColor=none;resizable=0;rotatable=0;perimeter=centerPerimeter;snapToPoint=1;" parent="1" vertex="1">
          <mxGeometry x="440" y="206" width="20" height="20" as="geometry" />
        </mxCell>
        <mxCell id="8XVUxLVr1DIilNDREIWd-53" value="" style="endArrow=none;dashed=1;html=1;rounded=0;exitX=0.05;exitY=0.5;exitDx=0;exitDy=0;exitPerimeter=0;" parent="1" target="8XVUxLVr1DIilNDREIWd-54" edge="1">
          <mxGeometry width="50" height="50" relative="1" as="geometry">
            <mxPoint x="290" y="216" as="sourcePoint" />
            <mxPoint x="370" y="216" as="targetPoint" />
            <Array as="points" />
          </mxGeometry>
        </mxCell>
        <mxCell id="8XVUxLVr1DIilNDREIWd-54" value="" style="shape=waypoint;sketch=0;fillStyle=solid;size=6;pointerEvents=1;points=[];fillColor=none;resizable=0;rotatable=0;perimeter=centerPerimeter;snapToPoint=1;" parent="1" vertex="1">
          <mxGeometry x="280" y="206" width="20" height="20" as="geometry" />
        </mxCell>
        <mxCell id="8XVUxLVr1DIilNDREIWd-58" value="" style="endArrow=none;dashed=1;html=1;rounded=0;" parent="1" target="8XVUxLVr1DIilNDREIWd-57" edge="1">
          <mxGeometry width="50" height="50" relative="1" as="geometry">
            <mxPoint x="70" y="267" as="sourcePoint" />
            <mxPoint x="820" y="266" as="targetPoint" />
          </mxGeometry>
        </mxCell>
        <mxCell id="8XVUxLVr1DIilNDREIWd-57" value="" style="shape=waypoint;sketch=0;fillStyle=solid;size=6;pointerEvents=1;points=[];fillColor=none;resizable=0;rotatable=0;perimeter=centerPerimeter;snapToPoint=1;" parent="1" vertex="1">
          <mxGeometry x="680" y="256" width="20" height="20" as="geometry" />
        </mxCell>
        <mxCell id="8XVUxLVr1DIilNDREIWd-59" value="" style="line;strokeWidth=2;direction=south;html=1;" parent="1" vertex="1">
          <mxGeometry x="645" y="246" width="10" height="40" as="geometry" />
        </mxCell>
        <mxCell id="8XVUxLVr1DIilNDREIWd-61" value="" style="endArrow=none;dashed=1;html=1;rounded=0;" parent="1" source="8XVUxLVr1DIilNDREIWd-57" edge="1">
          <mxGeometry width="50" height="50" relative="1" as="geometry">
            <mxPoint x="690" y="266" as="sourcePoint" />
            <mxPoint x="730" y="266" as="targetPoint" />
          </mxGeometry>
        </mxCell>
        <mxCell id="8XVUxLVr1DIilNDREIWd-62" value="" style="shape=waypoint;sketch=0;fillStyle=solid;size=6;pointerEvents=1;points=[];fillColor=none;resizable=0;rotatable=0;perimeter=centerPerimeter;snapToPoint=1;" parent="1" vertex="1">
          <mxGeometry x="120" y="257" width="20" height="20" as="geometry" />
        </mxCell>
        <mxCell id="8XVUxLVr1DIilNDREIWd-63" value="" style="line;strokeWidth=2;direction=south;html=1;" parent="1" vertex="1">
          <mxGeometry x="165" y="247" width="10" height="40" as="geometry" />
        </mxCell>
        <mxCell id="8XVUxLVr1DIilNDREIWd-68" value="$$i-4$$" style="text;html=1;align=center;verticalAlign=middle;resizable=0;points=[];autosize=1;strokeColor=none;fillColor=none;" parent="1" vertex="1">
          <mxGeometry x="100" y="295" width="60" height="30" as="geometry" />
        </mxCell>
        <mxCell id="8XVUxLVr1DIilNDREIWd-69" value="$$i+3$$" style="text;html=1;align=center;verticalAlign=middle;resizable=0;points=[];autosize=1;strokeColor=none;fillColor=none;" parent="1" vertex="1">
          <mxGeometry x="655" y="295" width="70" height="30" as="geometry" />
        </mxCell>
        <mxCell id="8XVUxLVr1DIilNDREIWd-70" value="" style="shape=waypoint;sketch=0;fillStyle=solid;size=6;pointerEvents=1;points=[];fillColor=none;resizable=0;rotatable=0;perimeter=centerPerimeter;snapToPoint=1;" parent="1" vertex="1">
          <mxGeometry x="360" y="116" width="20" height="20" as="geometry" />
        </mxCell>
        <mxCell id="8XVUxLVr1DIilNDREIWd-71" value="" style="shape=waypoint;sketch=0;fillStyle=solid;size=6;pointerEvents=1;points=[];fillColor=none;resizable=0;rotatable=0;perimeter=centerPerimeter;snapToPoint=1;" parent="1" vertex="1">
          <mxGeometry x="440" y="116" width="20" height="20" as="geometry" />
        </mxCell>
        <mxCell id="8XVUxLVr1DIilNDREIWd-72" value="" style="shape=waypoint;sketch=0;fillStyle=solid;size=6;pointerEvents=1;points=[];fillColor=none;resizable=0;rotatable=0;perimeter=centerPerimeter;snapToPoint=1;" parent="1" vertex="1">
          <mxGeometry x="520" y="116" width="20" height="20" as="geometry" />
        </mxCell>
        <mxCell id="8XVUxLVr1DIilNDREIWd-73" value="" style="endArrow=none;dashed=1;html=1;rounded=0;exitX=0.05;exitY=0.5;exitDx=0;exitDy=0;exitPerimeter=0;entryX=0.25;entryY=0.546;entryDx=0;entryDy=0;entryPerimeter=0;" parent="1" source="8XVUxLVr1DIilNDREIWd-70" target="8XVUxLVr1DIilNDREIWd-75" edge="1">
          <mxGeometry width="50" height="50" relative="1" as="geometry">
            <mxPoint x="680" y="36" as="sourcePoint" />
            <mxPoint x="730" y="-14" as="targetPoint" />
          </mxGeometry>
        </mxCell>
        <mxCell id="8XVUxLVr1DIilNDREIWd-74" value="$$S_3$$" style="text;html=1;align=center;verticalAlign=middle;resizable=0;points=[];autosize=1;strokeColor=none;fillColor=none;" parent="1" vertex="1">
          <mxGeometry x="310" y="111" width="70" height="30" as="geometry" />
        </mxCell>
        <mxCell id="8XVUxLVr1DIilNDREIWd-75" value="" style="shape=waypoint;sketch=0;fillStyle=solid;size=6;pointerEvents=1;points=[];fillColor=none;resizable=0;rotatable=0;perimeter=centerPerimeter;snapToPoint=1;" parent="1" vertex="1">
          <mxGeometry x="600" y="116" width="20" height="20" as="geometry" />
        </mxCell>
        <mxCell id="8XVUxLVr1DIilNDREIWd-76" value="" style="shape=waypoint;sketch=0;fillStyle=solid;size=6;pointerEvents=1;points=[];fillColor=none;resizable=0;rotatable=0;perimeter=centerPerimeter;snapToPoint=1;" parent="1" vertex="1">
          <mxGeometry x="200" y="86" width="20" height="20" as="geometry" />
        </mxCell>
        <mxCell id="8XVUxLVr1DIilNDREIWd-77" value="" style="shape=waypoint;sketch=0;fillStyle=solid;size=6;pointerEvents=1;points=[];fillColor=none;resizable=0;rotatable=0;perimeter=centerPerimeter;snapToPoint=1;" parent="1" vertex="1">
          <mxGeometry x="280" y="86" width="20" height="20" as="geometry" />
        </mxCell>
        <mxCell id="8XVUxLVr1DIilNDREIWd-78" value="" style="shape=waypoint;sketch=0;fillStyle=solid;size=6;pointerEvents=1;points=[];fillColor=none;resizable=0;rotatable=0;perimeter=centerPerimeter;snapToPoint=1;" parent="1" vertex="1">
          <mxGeometry x="360" y="86" width="20" height="20" as="geometry" />
        </mxCell>
        <mxCell id="8XVUxLVr1DIilNDREIWd-79" value="" style="endArrow=none;dashed=1;html=1;rounded=0;exitX=0.25;exitY=0.546;exitDx=0;exitDy=0;exitPerimeter=0;" parent="1" source="8XVUxLVr1DIilNDREIWd-81" target="8XVUxLVr1DIilNDREIWd-78" edge="1">
          <mxGeometry width="50" height="50" relative="1" as="geometry">
            <mxPoint x="520" y="6" as="sourcePoint" />
            <mxPoint x="570" y="-44" as="targetPoint" />
          </mxGeometry>
        </mxCell>
        <mxCell id="8XVUxLVr1DIilNDREIWd-80" value="$$S_4$$" style="text;html=1;align=center;verticalAlign=middle;resizable=0;points=[];autosize=1;strokeColor=none;fillColor=none;" parent="1" vertex="1">
          <mxGeometry x="70" y="81" width="70" height="30" as="geometry" />
        </mxCell>
        <mxCell id="8XVUxLVr1DIilNDREIWd-81" value="" style="shape=waypoint;sketch=0;fillStyle=solid;size=6;pointerEvents=1;points=[];fillColor=none;resizable=0;rotatable=0;perimeter=centerPerimeter;snapToPoint=1;" parent="1" vertex="1">
          <mxGeometry x="120" y="86" width="20" height="20" as="geometry" />
        </mxCell>
        <mxCell id="8XVUxLVr1DIilNDREIWd-82" value="" style="shape=waypoint;sketch=0;fillStyle=solid;size=6;pointerEvents=1;points=[];fillColor=none;resizable=0;rotatable=0;perimeter=centerPerimeter;snapToPoint=1;" parent="1" vertex="1">
          <mxGeometry x="360" y="56" width="20" height="20" as="geometry" />
        </mxCell>
        <mxCell id="8XVUxLVr1DIilNDREIWd-83" value="" style="shape=waypoint;sketch=0;fillStyle=solid;size=6;pointerEvents=1;points=[];fillColor=none;resizable=0;rotatable=0;perimeter=centerPerimeter;snapToPoint=1;" parent="1" vertex="1">
          <mxGeometry x="440" y="56" width="20" height="20" as="geometry" />
        </mxCell>
        <mxCell id="8XVUxLVr1DIilNDREIWd-84" value="" style="shape=waypoint;sketch=0;fillStyle=solid;size=6;pointerEvents=1;points=[];fillColor=none;resizable=0;rotatable=0;perimeter=centerPerimeter;snapToPoint=1;" parent="1" vertex="1">
          <mxGeometry x="520" y="56" width="20" height="20" as="geometry" />
        </mxCell>
        <mxCell id="8XVUxLVr1DIilNDREIWd-85" value="" style="endArrow=none;dashed=1;html=1;rounded=0;exitX=0.05;exitY=0.5;exitDx=0;exitDy=0;exitPerimeter=0;entryX=0.125;entryY=0.379;entryDx=0;entryDy=0;entryPerimeter=0;" parent="1" source="8XVUxLVr1DIilNDREIWd-82" target="8XVUxLVr1DIilNDREIWd-88" edge="1">
          <mxGeometry width="50" height="50" relative="1" as="geometry">
            <mxPoint x="680" y="-24" as="sourcePoint" />
            <mxPoint x="730" y="-74" as="targetPoint" />
          </mxGeometry>
        </mxCell>
        <mxCell id="8XVUxLVr1DIilNDREIWd-86" value="$$S_5$$" style="text;html=1;align=center;verticalAlign=middle;resizable=0;points=[];autosize=1;strokeColor=none;fillColor=none;" parent="1" vertex="1">
          <mxGeometry x="310" y="51" width="70" height="30" as="geometry" />
        </mxCell>
        <mxCell id="8XVUxLVr1DIilNDREIWd-87" value="" style="shape=waypoint;sketch=0;fillStyle=solid;size=6;pointerEvents=1;points=[];fillColor=none;resizable=0;rotatable=0;perimeter=centerPerimeter;snapToPoint=1;" parent="1" vertex="1">
          <mxGeometry x="600" y="56" width="20" height="20" as="geometry" />
        </mxCell>
        <mxCell id="8XVUxLVr1DIilNDREIWd-88" value="" style="shape=waypoint;sketch=0;fillStyle=solid;size=6;pointerEvents=1;points=[];fillColor=none;resizable=0;rotatable=0;perimeter=centerPerimeter;snapToPoint=1;" parent="1" vertex="1">
          <mxGeometry x="680" y="56" width="20" height="20" as="geometry" />
        </mxCell>
        <mxCell id="fAmjd2vhz_FrXF9YSCiJ-1" value="$$i-3$$" style="text;html=1;align=center;verticalAlign=middle;resizable=0;points=[];autosize=1;strokeColor=none;fillColor=none;" vertex="1" parent="1">
          <mxGeometry x="180" y="295" width="60" height="30" as="geometry" />
        </mxCell>
      </root>
    </mxGraphModel>
  </diagram>
</mxfile>
